<mxfile host="Electron" modified="2023-09-02T16:52:08.734Z" agent="Mozilla/5.0 (Windows NT 10.0; Win64; x64) AppleWebKit/537.36 (KHTML, like Gecko) draw.io/21.6.8 Chrome/114.0.5735.289 Electron/25.5.0 Safari/537.36" etag="rQuNatHP8riyMla09VIw" version="21.6.8" type="device">
  <diagram name="第 1 页" id="gi4KJW84IDohBwd1nFdY">
    <mxGraphModel dx="1500" dy="899" grid="1" gridSize="10" guides="1" tooltips="1" connect="1" arrows="1" fold="1" page="1" pageScale="1" pageWidth="4681" pageHeight="3300" math="0" shadow="0">
      <root>
        <mxCell id="0" />
        <mxCell id="1" parent="0" />
        <mxCell id="zJx0h5G6u-gIFGeVcfLG-7" value="" style="edgeStyle=orthogonalEdgeStyle;rounded=0;hachureGap=4;orthogonalLoop=1;jettySize=auto;html=1;fontFamily=Architects Daughter;fontSource=https%3A%2F%2Ffonts.googleapis.com%2Fcss%3Ffamily%3DArchitects%2BDaughter;fontSize=16;sketch=1;curveFitting=1;jiggle=2;" edge="1" parent="1" source="prfhwrwzsq4mLhs9yBWU-2" target="zJx0h5G6u-gIFGeVcfLG-6">
          <mxGeometry relative="1" as="geometry" />
        </mxCell>
        <mxCell id="zJx0h5G6u-gIFGeVcfLG-8" value="是" style="edgeLabel;html=1;align=center;verticalAlign=middle;resizable=0;points=[];fontSize=20;fontFamily=Architects Daughter;sketch=1;curveFitting=1;jiggle=2;" vertex="1" connectable="0" parent="zJx0h5G6u-gIFGeVcfLG-7">
          <mxGeometry x="-0.076" y="-2" relative="1" as="geometry">
            <mxPoint as="offset" />
          </mxGeometry>
        </mxCell>
        <mxCell id="zJx0h5G6u-gIFGeVcfLG-32" value="" style="edgeStyle=orthogonalEdgeStyle;rounded=0;hachureGap=4;orthogonalLoop=1;jettySize=auto;html=1;fontFamily=Architects Daughter;fontSource=https%3A%2F%2Ffonts.googleapis.com%2Fcss%3Ffamily%3DArchitects%2BDaughter;fontSize=16;sketch=1;curveFitting=1;jiggle=2;" edge="1" parent="1" source="prfhwrwzsq4mLhs9yBWU-2" target="zJx0h5G6u-gIFGeVcfLG-31">
          <mxGeometry relative="1" as="geometry" />
        </mxCell>
        <mxCell id="zJx0h5G6u-gIFGeVcfLG-72" value="否" style="edgeLabel;html=1;align=center;verticalAlign=middle;resizable=0;points=[];fontSize=20;fontFamily=Architects Daughter;" vertex="1" connectable="0" parent="zJx0h5G6u-gIFGeVcfLG-32">
          <mxGeometry x="0.1208" y="1" relative="1" as="geometry">
            <mxPoint as="offset" />
          </mxGeometry>
        </mxCell>
        <mxCell id="prfhwrwzsq4mLhs9yBWU-2" value="判断队列中是否还有空间或者是否允许进行覆盖" style="strokeWidth=2;shape=mxgraph.flowchart.decision;whiteSpace=wrap;fontFamily=Architects Daughter;fontSource=https%3A%2F%2Ffonts.googleapis.com%2Fcss%3Ffamily%3DArchitects%2BDaughter;fontSize=20;sketch=1;curveFitting=1;jiggle=2;" parent="1" vertex="1">
          <mxGeometry x="326" y="630" width="281" height="130" as="geometry" />
        </mxCell>
        <mxCell id="zJx0h5G6u-gIFGeVcfLG-68" value="" style="edgeStyle=orthogonalEdgeStyle;rounded=0;sketch=1;hachureGap=4;jiggle=2;curveFitting=1;orthogonalLoop=1;jettySize=auto;html=1;fontFamily=Architects Daughter;fontSource=https%3A%2F%2Ffonts.googleapis.com%2Fcss%3Ffamily%3DArchitects%2BDaughter;fontSize=16;" edge="1" parent="1" source="zJx0h5G6u-gIFGeVcfLG-1" target="zJx0h5G6u-gIFGeVcfLG-2">
          <mxGeometry relative="1" as="geometry" />
        </mxCell>
        <mxCell id="zJx0h5G6u-gIFGeVcfLG-1" value="&lt;font style=&quot;font-size: 20px;&quot;&gt;开始&lt;/font&gt;" style="strokeWidth=2;html=1;shape=mxgraph.flowchart.terminator;whiteSpace=wrap;sketch=1;curveFitting=1;jiggle=2;" vertex="1" parent="1">
          <mxGeometry x="416.5" y="350" width="100" height="60" as="geometry" />
        </mxCell>
        <mxCell id="zJx0h5G6u-gIFGeVcfLG-4" value="" style="edgeStyle=orthogonalEdgeStyle;orthogonalLoop=1;jettySize=auto;html=1;sketch=1;curveFitting=1;jiggle=2;" edge="1" parent="1" source="zJx0h5G6u-gIFGeVcfLG-2" target="prfhwrwzsq4mLhs9yBWU-2">
          <mxGeometry relative="1" as="geometry" />
        </mxCell>
        <mxCell id="zJx0h5G6u-gIFGeVcfLG-2" value="&lt;font style=&quot;font-size: 20px;&quot; data-font-src=&quot;https://fonts.googleapis.com/css?family=Architects+Daughter&quot; face=&quot;Architects Daughter&quot;&gt;关中断&lt;/font&gt;" style="whiteSpace=wrap;html=1;strokeWidth=2;sketch=1;curveFitting=1;jiggle=2;" vertex="1" parent="1">
          <mxGeometry x="406.5" y="510" width="120" height="60" as="geometry" />
        </mxCell>
        <mxCell id="zJx0h5G6u-gIFGeVcfLG-13" value="" style="edgeStyle=orthogonalEdgeStyle;rounded=0;hachureGap=4;orthogonalLoop=1;jettySize=auto;html=1;fontFamily=Architects Daughter;fontSource=https%3A%2F%2Ffonts.googleapis.com%2Fcss%3Ffamily%3DArchitects%2BDaughter;fontSize=16;sketch=1;curveFitting=1;jiggle=2;" edge="1" parent="1" source="zJx0h5G6u-gIFGeVcfLG-6" target="zJx0h5G6u-gIFGeVcfLG-12">
          <mxGeometry relative="1" as="geometry" />
        </mxCell>
        <mxCell id="zJx0h5G6u-gIFGeVcfLG-6" value="将数据拷贝，再将持有互斥量的任务进行剥夺互斥量，&lt;br&gt;API：prvCopyDataToQueue" style="whiteSpace=wrap;html=1;strokeWidth=2;hachureGap=4;fontFamily=Architects Daughter;fontSource=https%3A%2F%2Ffonts.googleapis.com%2Fcss%3Ffamily%3DArchitects%2BDaughter;fontSize=20;sketch=1;curveFitting=1;jiggle=2;" vertex="1" parent="1">
          <mxGeometry x="324.25" y="860" width="276.5" height="100" as="geometry" />
        </mxCell>
        <mxCell id="zJx0h5G6u-gIFGeVcfLG-17" value="" style="edgeStyle=orthogonalEdgeStyle;rounded=0;hachureGap=4;orthogonalLoop=1;jettySize=auto;html=1;fontFamily=Architects Daughter;fontSource=https%3A%2F%2Ffonts.googleapis.com%2Fcss%3Ffamily%3DArchitects%2BDaughter;fontSize=16;sketch=1;curveFitting=1;jiggle=2;" edge="1" parent="1" source="zJx0h5G6u-gIFGeVcfLG-12" target="zJx0h5G6u-gIFGeVcfLG-16">
          <mxGeometry relative="1" as="geometry" />
        </mxCell>
        <mxCell id="zJx0h5G6u-gIFGeVcfLG-20" value="是" style="edgeLabel;html=1;align=center;verticalAlign=middle;resizable=0;points=[];fontSize=20;fontFamily=Architects Daughter;sketch=1;curveFitting=1;jiggle=2;" vertex="1" connectable="0" parent="zJx0h5G6u-gIFGeVcfLG-17">
          <mxGeometry x="-0.1002" y="-1" relative="1" as="geometry">
            <mxPoint as="offset" />
          </mxGeometry>
        </mxCell>
        <mxCell id="zJx0h5G6u-gIFGeVcfLG-28" value="" style="edgeStyle=orthogonalEdgeStyle;rounded=0;hachureGap=4;orthogonalLoop=1;jettySize=auto;html=1;fontFamily=Architects Daughter;fontSource=https%3A%2F%2Ffonts.googleapis.com%2Fcss%3Ffamily%3DArchitects%2BDaughter;fontSize=16;sketch=1;curveFitting=1;jiggle=2;" edge="1" parent="1" source="zJx0h5G6u-gIFGeVcfLG-12" target="zJx0h5G6u-gIFGeVcfLG-27">
          <mxGeometry relative="1" as="geometry" />
        </mxCell>
        <mxCell id="zJx0h5G6u-gIFGeVcfLG-30" value="否" style="edgeLabel;html=1;align=center;verticalAlign=middle;resizable=0;points=[];fontSize=20;fontFamily=Architects Daughter;sketch=1;curveFitting=1;jiggle=2;" vertex="1" connectable="0" parent="zJx0h5G6u-gIFGeVcfLG-28">
          <mxGeometry x="0.5884" y="-1" relative="1" as="geometry">
            <mxPoint as="offset" />
          </mxGeometry>
        </mxCell>
        <mxCell id="zJx0h5G6u-gIFGeVcfLG-12" value="判断等待接收链表中是否为空" style="rhombus;whiteSpace=wrap;html=1;fontSize=20;fontFamily=Architects Daughter;strokeWidth=2;hachureGap=4;fontSource=https%3A%2F%2Ffonts.googleapis.com%2Fcss%3Ffamily%3DArchitects%2BDaughter;sketch=1;curveFitting=1;jiggle=2;" vertex="1" parent="1">
          <mxGeometry x="290" y="1025" width="344" height="120" as="geometry" />
        </mxCell>
        <mxCell id="zJx0h5G6u-gIFGeVcfLG-22" value="" style="edgeStyle=orthogonalEdgeStyle;rounded=0;hachureGap=4;orthogonalLoop=1;jettySize=auto;html=1;fontFamily=Architects Daughter;fontSource=https%3A%2F%2Ffonts.googleapis.com%2Fcss%3Ffamily%3DArchitects%2BDaughter;fontSize=16;sketch=1;curveFitting=1;jiggle=2;" edge="1" parent="1" source="zJx0h5G6u-gIFGeVcfLG-16" target="zJx0h5G6u-gIFGeVcfLG-21">
          <mxGeometry relative="1" as="geometry" />
        </mxCell>
        <mxCell id="zJx0h5G6u-gIFGeVcfLG-16" value="将等待接收链表移除第一个任务" style="whiteSpace=wrap;html=1;strokeWidth=2;hachureGap=4;sketch=1;curveFitting=1;jiggle=2;fontFamily=Architects Daughter;fontSource=https%3A%2F%2Ffonts.googleapis.com%2Fcss%3Ffamily%3DArchitects%2BDaughter;fontSize=20;" vertex="1" parent="1">
          <mxGeometry x="313.13" y="1230" width="298.75" height="90" as="geometry" />
        </mxCell>
        <mxCell id="zJx0h5G6u-gIFGeVcfLG-24" value="" style="edgeStyle=orthogonalEdgeStyle;rounded=0;hachureGap=4;orthogonalLoop=1;jettySize=auto;html=1;fontFamily=Architects Daughter;fontSource=https%3A%2F%2Ffonts.googleapis.com%2Fcss%3Ffamily%3DArchitects%2BDaughter;fontSize=16;sketch=1;curveFitting=1;jiggle=2;" edge="1" parent="1" source="zJx0h5G6u-gIFGeVcfLG-21" target="zJx0h5G6u-gIFGeVcfLG-23">
          <mxGeometry relative="1" as="geometry" />
        </mxCell>
        <mxCell id="zJx0h5G6u-gIFGeVcfLG-21" value="开中断" style="whiteSpace=wrap;html=1;fontSize=20;fontFamily=Architects Daughter;strokeWidth=2;hachureGap=4;fontSource=https%3A%2F%2Ffonts.googleapis.com%2Fcss%3Ffamily%3DArchitects%2BDaughter;sketch=1;curveFitting=1;jiggle=2;" vertex="1" parent="1">
          <mxGeometry x="402.505" y="1415" width="120" height="60" as="geometry" />
        </mxCell>
        <mxCell id="zJx0h5G6u-gIFGeVcfLG-26" value="" style="edgeStyle=orthogonalEdgeStyle;rounded=0;hachureGap=4;orthogonalLoop=1;jettySize=auto;html=1;fontFamily=Architects Daughter;fontSource=https%3A%2F%2Ffonts.googleapis.com%2Fcss%3Ffamily%3DArchitects%2BDaughter;fontSize=16;sketch=1;curveFitting=1;jiggle=2;" edge="1" parent="1" source="zJx0h5G6u-gIFGeVcfLG-23" target="zJx0h5G6u-gIFGeVcfLG-25">
          <mxGeometry relative="1" as="geometry" />
        </mxCell>
        <mxCell id="zJx0h5G6u-gIFGeVcfLG-23" value="返回pdPASS" style="whiteSpace=wrap;html=1;fontSize=20;fontFamily=Architects Daughter;strokeWidth=2;hachureGap=4;fontSource=https%3A%2F%2Ffonts.googleapis.com%2Fcss%3Ffamily%3DArchitects%2BDaughter;sketch=1;curveFitting=1;jiggle=2;" vertex="1" parent="1">
          <mxGeometry x="382.51" y="1555" width="160" height="60" as="geometry" />
        </mxCell>
        <mxCell id="zJx0h5G6u-gIFGeVcfLG-25" value="结束" style="strokeWidth=2;html=1;shape=mxgraph.flowchart.terminator;whiteSpace=wrap;hachureGap=4;fontFamily=Architects Daughter;fontSource=https%3A%2F%2Ffonts.googleapis.com%2Fcss%3Ffamily%3DArchitects%2BDaughter;fontSize=20;sketch=1;curveFitting=1;jiggle=2;" vertex="1" parent="1">
          <mxGeometry x="412.5" y="1670" width="100" height="60" as="geometry" />
        </mxCell>
        <mxCell id="zJx0h5G6u-gIFGeVcfLG-29" style="edgeStyle=orthogonalEdgeStyle;rounded=0;hachureGap=4;orthogonalLoop=1;jettySize=auto;html=1;fontFamily=Architects Daughter;fontSource=https%3A%2F%2Ffonts.googleapis.com%2Fcss%3Ffamily%3DArchitects%2BDaughter;fontSize=16;sketch=1;curveFitting=1;jiggle=2;" edge="1" parent="1" source="zJx0h5G6u-gIFGeVcfLG-27">
          <mxGeometry relative="1" as="geometry">
            <mxPoint x="462.5" y="1380" as="targetPoint" />
            <Array as="points">
              <mxPoint x="852.5" y="1380" />
            </Array>
          </mxGeometry>
        </mxCell>
        <mxCell id="zJx0h5G6u-gIFGeVcfLG-27" value="调试检查" style="whiteSpace=wrap;html=1;fontSize=20;fontFamily=Architects Daughter;strokeWidth=2;hachureGap=4;fontSource=https%3A%2F%2Ffonts.googleapis.com%2Fcss%3Ffamily%3DArchitects%2BDaughter;sketch=1;curveFitting=1;jiggle=2;" vertex="1" parent="1">
          <mxGeometry x="792.5" y="1245" width="120" height="60" as="geometry" />
        </mxCell>
        <mxCell id="zJx0h5G6u-gIFGeVcfLG-34" value="" style="edgeStyle=orthogonalEdgeStyle;rounded=0;hachureGap=4;orthogonalLoop=1;jettySize=auto;html=1;fontFamily=Architects Daughter;fontSource=https%3A%2F%2Ffonts.googleapis.com%2Fcss%3Ffamily%3DArchitects%2BDaughter;fontSize=16;sketch=1;curveFitting=1;jiggle=2;" edge="1" parent="1" source="zJx0h5G6u-gIFGeVcfLG-31" target="zJx0h5G6u-gIFGeVcfLG-33">
          <mxGeometry relative="1" as="geometry" />
        </mxCell>
        <mxCell id="zJx0h5G6u-gIFGeVcfLG-40" value="是" style="edgeLabel;html=1;align=center;verticalAlign=middle;resizable=0;points=[];fontSize=20;fontFamily=Architects Daughter;" vertex="1" connectable="0" parent="zJx0h5G6u-gIFGeVcfLG-34">
          <mxGeometry x="-0.0399" y="-3" relative="1" as="geometry">
            <mxPoint as="offset" />
          </mxGeometry>
        </mxCell>
        <mxCell id="zJx0h5G6u-gIFGeVcfLG-42" value="" style="edgeStyle=orthogonalEdgeStyle;rounded=0;sketch=1;hachureGap=4;jiggle=2;curveFitting=1;orthogonalLoop=1;jettySize=auto;html=1;fontFamily=Architects Daughter;fontSource=https%3A%2F%2Ffonts.googleapis.com%2Fcss%3Ffamily%3DArchitects%2BDaughter;fontSize=16;" edge="1" parent="1" source="zJx0h5G6u-gIFGeVcfLG-31" target="zJx0h5G6u-gIFGeVcfLG-41">
          <mxGeometry relative="1" as="geometry" />
        </mxCell>
        <mxCell id="zJx0h5G6u-gIFGeVcfLG-73" value="否" style="edgeLabel;html=1;align=center;verticalAlign=middle;resizable=0;points=[];fontSize=20;fontFamily=Architects Daughter;" vertex="1" connectable="0" parent="zJx0h5G6u-gIFGeVcfLG-42">
          <mxGeometry x="0.7267" y="-1" relative="1" as="geometry">
            <mxPoint y="1" as="offset" />
          </mxGeometry>
        </mxCell>
        <mxCell id="zJx0h5G6u-gIFGeVcfLG-31" value="等待时间是否为0" style="rhombus;whiteSpace=wrap;html=1;fontSize=20;fontFamily=Architects Daughter;strokeWidth=2;fontSource=https%3A%2F%2Ffonts.googleapis.com%2Fcss%3Ffamily%3DArchitects%2BDaughter;hachureGap=4;sketch=1;curveFitting=1;jiggle=2;" vertex="1" parent="1">
          <mxGeometry x="982.5" y="637.5" width="220" height="115" as="geometry" />
        </mxCell>
        <mxCell id="zJx0h5G6u-gIFGeVcfLG-36" value="" style="edgeStyle=orthogonalEdgeStyle;rounded=0;hachureGap=4;orthogonalLoop=1;jettySize=auto;html=1;fontFamily=Architects Daughter;fontSource=https%3A%2F%2Ffonts.googleapis.com%2Fcss%3Ffamily%3DArchitects%2BDaughter;fontSize=16;sketch=1;curveFitting=1;jiggle=2;" edge="1" parent="1" source="zJx0h5G6u-gIFGeVcfLG-33" target="zJx0h5G6u-gIFGeVcfLG-35">
          <mxGeometry relative="1" as="geometry" />
        </mxCell>
        <mxCell id="zJx0h5G6u-gIFGeVcfLG-33" value="开中断" style="whiteSpace=wrap;html=1;fontSize=20;fontFamily=Architects Daughter;strokeWidth=2;fontSource=https%3A%2F%2Ffonts.googleapis.com%2Fcss%3Ffamily%3DArchitects%2BDaughter;hachureGap=4;sketch=1;curveFitting=1;jiggle=2;" vertex="1" parent="1">
          <mxGeometry x="1032.5" y="812.5" width="120" height="60" as="geometry" />
        </mxCell>
        <mxCell id="zJx0h5G6u-gIFGeVcfLG-39" style="edgeStyle=orthogonalEdgeStyle;rounded=0;sketch=1;hachureGap=4;jiggle=2;curveFitting=1;orthogonalLoop=1;jettySize=auto;html=1;entryX=1;entryY=0.5;entryDx=0;entryDy=0;entryPerimeter=0;fontFamily=Architects Daughter;fontSource=https%3A%2F%2Ffonts.googleapis.com%2Fcss%3Ffamily%3DArchitects%2BDaughter;fontSize=16;" edge="1" parent="1" source="zJx0h5G6u-gIFGeVcfLG-35" target="zJx0h5G6u-gIFGeVcfLG-25">
          <mxGeometry relative="1" as="geometry">
            <Array as="points">
              <mxPoint x="1092.5" y="1640" />
            </Array>
          </mxGeometry>
        </mxCell>
        <mxCell id="zJx0h5G6u-gIFGeVcfLG-35" value="返回errQUEUE_FULL" style="whiteSpace=wrap;html=1;fontSize=20;fontFamily=Architects Daughter;strokeWidth=2;fontSource=https%3A%2F%2Ffonts.googleapis.com%2Fcss%3Ffamily%3DArchitects%2BDaughter;hachureGap=4;sketch=1;curveFitting=1;jiggle=2;" vertex="1" parent="1">
          <mxGeometry x="972.5" y="952.5" width="240" height="60" as="geometry" />
        </mxCell>
        <mxCell id="zJx0h5G6u-gIFGeVcfLG-44" value="" style="edgeStyle=orthogonalEdgeStyle;rounded=0;sketch=1;hachureGap=4;jiggle=2;curveFitting=1;orthogonalLoop=1;jettySize=auto;html=1;fontFamily=Architects Daughter;fontSource=https%3A%2F%2Ffonts.googleapis.com%2Fcss%3Ffamily%3DArchitects%2BDaughter;fontSize=16;" edge="1" parent="1" source="zJx0h5G6u-gIFGeVcfLG-41" target="zJx0h5G6u-gIFGeVcfLG-43">
          <mxGeometry relative="1" as="geometry" />
        </mxCell>
        <mxCell id="zJx0h5G6u-gIFGeVcfLG-41" value="设置等待时间" style="whiteSpace=wrap;html=1;fontSize=20;fontFamily=Architects Daughter;strokeWidth=2;fontSource=https%3A%2F%2Ffonts.googleapis.com%2Fcss%3Ffamily%3DArchitects%2BDaughter;hachureGap=4;sketch=1;curveFitting=1;jiggle=2;" vertex="1" parent="1">
          <mxGeometry x="1412.5" y="812.5" width="220" height="60" as="geometry" />
        </mxCell>
        <mxCell id="zJx0h5G6u-gIFGeVcfLG-46" value="" style="edgeStyle=orthogonalEdgeStyle;rounded=0;sketch=1;hachureGap=4;jiggle=2;curveFitting=1;orthogonalLoop=1;jettySize=auto;html=1;fontFamily=Architects Daughter;fontSource=https%3A%2F%2Ffonts.googleapis.com%2Fcss%3Ffamily%3DArchitects%2BDaughter;fontSize=16;" edge="1" parent="1" source="zJx0h5G6u-gIFGeVcfLG-43" target="zJx0h5G6u-gIFGeVcfLG-45">
          <mxGeometry relative="1" as="geometry" />
        </mxCell>
        <mxCell id="zJx0h5G6u-gIFGeVcfLG-43" value="开中断" style="whiteSpace=wrap;html=1;fontSize=20;fontFamily=Architects Daughter;strokeWidth=2;fontSource=https%3A%2F%2Ffonts.googleapis.com%2Fcss%3Ffamily%3DArchitects%2BDaughter;hachureGap=4;sketch=1;curveFitting=1;jiggle=2;" vertex="1" parent="1">
          <mxGeometry x="1462.5" y="952.5" width="120" height="60" as="geometry" />
        </mxCell>
        <mxCell id="zJx0h5G6u-gIFGeVcfLG-48" value="" style="edgeStyle=orthogonalEdgeStyle;rounded=0;sketch=1;hachureGap=4;jiggle=2;curveFitting=1;orthogonalLoop=1;jettySize=auto;html=1;fontFamily=Architects Daughter;fontSource=https%3A%2F%2Ffonts.googleapis.com%2Fcss%3Ffamily%3DArchitects%2BDaughter;fontSize=16;" edge="1" parent="1" source="zJx0h5G6u-gIFGeVcfLG-45" target="zJx0h5G6u-gIFGeVcfLG-47">
          <mxGeometry relative="1" as="geometry" />
        </mxCell>
        <mxCell id="zJx0h5G6u-gIFGeVcfLG-45" value="挂起调度器" style="whiteSpace=wrap;html=1;fontSize=20;fontFamily=Architects Daughter;strokeWidth=2;fontSource=https%3A%2F%2Ffonts.googleapis.com%2Fcss%3Ffamily%3DArchitects%2BDaughter;hachureGap=4;sketch=1;curveFitting=1;jiggle=2;" vertex="1" parent="1">
          <mxGeometry x="1462.5" y="1092.5" width="120" height="60" as="geometry" />
        </mxCell>
        <mxCell id="zJx0h5G6u-gIFGeVcfLG-50" value="" style="edgeStyle=orthogonalEdgeStyle;rounded=0;sketch=1;hachureGap=4;jiggle=2;curveFitting=1;orthogonalLoop=1;jettySize=auto;html=1;fontFamily=Architects Daughter;fontSource=https%3A%2F%2Ffonts.googleapis.com%2Fcss%3Ffamily%3DArchitects%2BDaughter;fontSize=16;" edge="1" parent="1" source="zJx0h5G6u-gIFGeVcfLG-47" target="zJx0h5G6u-gIFGeVcfLG-49">
          <mxGeometry relative="1" as="geometry" />
        </mxCell>
        <mxCell id="zJx0h5G6u-gIFGeVcfLG-53" value="是" style="edgeLabel;html=1;align=center;verticalAlign=middle;resizable=0;points=[];fontSize=20;fontFamily=Architects Daughter;" vertex="1" connectable="0" parent="zJx0h5G6u-gIFGeVcfLG-50">
          <mxGeometry x="-0.0684" y="-4" relative="1" as="geometry">
            <mxPoint as="offset" />
          </mxGeometry>
        </mxCell>
        <mxCell id="zJx0h5G6u-gIFGeVcfLG-55" value="" style="edgeStyle=orthogonalEdgeStyle;rounded=0;sketch=1;hachureGap=4;jiggle=2;curveFitting=1;orthogonalLoop=1;jettySize=auto;html=1;fontFamily=Architects Daughter;fontSource=https%3A%2F%2Ffonts.googleapis.com%2Fcss%3Ffamily%3DArchitects%2BDaughter;fontSize=16;" edge="1" parent="1" source="zJx0h5G6u-gIFGeVcfLG-47" target="zJx0h5G6u-gIFGeVcfLG-54">
          <mxGeometry relative="1" as="geometry" />
        </mxCell>
        <mxCell id="zJx0h5G6u-gIFGeVcfLG-59" value="否" style="edgeLabel;html=1;align=center;verticalAlign=middle;resizable=0;points=[];fontSize=20;fontFamily=Architects Daughter;" vertex="1" connectable="0" parent="zJx0h5G6u-gIFGeVcfLG-55">
          <mxGeometry x="0.0158" y="-4" relative="1" as="geometry">
            <mxPoint as="offset" />
          </mxGeometry>
        </mxCell>
        <mxCell id="zJx0h5G6u-gIFGeVcfLG-47" value="判断任务是否等待超时" style="rhombus;whiteSpace=wrap;html=1;fontSize=20;fontFamily=Architects Daughter;strokeWidth=2;fontSource=https%3A%2F%2Ffonts.googleapis.com%2Fcss%3Ffamily%3DArchitects%2BDaughter;hachureGap=4;sketch=1;curveFitting=1;jiggle=2;" vertex="1" parent="1">
          <mxGeometry x="1382.5" y="1212.5" width="280" height="140" as="geometry" />
        </mxCell>
        <mxCell id="zJx0h5G6u-gIFGeVcfLG-52" value="" style="edgeStyle=orthogonalEdgeStyle;rounded=0;sketch=1;hachureGap=4;jiggle=2;curveFitting=1;orthogonalLoop=1;jettySize=auto;html=1;fontFamily=Architects Daughter;fontSource=https%3A%2F%2Ffonts.googleapis.com%2Fcss%3Ffamily%3DArchitects%2BDaughter;fontSize=16;" edge="1" parent="1" source="zJx0h5G6u-gIFGeVcfLG-49" target="zJx0h5G6u-gIFGeVcfLG-51">
          <mxGeometry relative="1" as="geometry" />
        </mxCell>
        <mxCell id="zJx0h5G6u-gIFGeVcfLG-49" value="恢复调度器" style="whiteSpace=wrap;html=1;fontSize=20;fontFamily=Architects Daughter;strokeWidth=2;fontSource=https%3A%2F%2Ffonts.googleapis.com%2Fcss%3Ffamily%3DArchitects%2BDaughter;hachureGap=4;sketch=1;curveFitting=1;jiggle=2;" vertex="1" parent="1">
          <mxGeometry x="1462.5" y="1472.5" width="120" height="60" as="geometry" />
        </mxCell>
        <mxCell id="zJx0h5G6u-gIFGeVcfLG-51" value="返回errQUEUE_FULL" style="whiteSpace=wrap;html=1;fontSize=20;fontFamily=Architects Daughter;strokeWidth=2;fontSource=https%3A%2F%2Ffonts.googleapis.com%2Fcss%3Ffamily%3DArchitects%2BDaughter;hachureGap=4;sketch=1;curveFitting=1;jiggle=2;" vertex="1" parent="1">
          <mxGeometry x="1407.5" y="1612.5" width="230" height="60" as="geometry" />
        </mxCell>
        <mxCell id="zJx0h5G6u-gIFGeVcfLG-57" value="" style="edgeStyle=orthogonalEdgeStyle;rounded=0;sketch=1;hachureGap=4;jiggle=2;curveFitting=1;orthogonalLoop=1;jettySize=auto;html=1;fontFamily=Architects Daughter;fontSource=https%3A%2F%2Ffonts.googleapis.com%2Fcss%3Ffamily%3DArchitects%2BDaughter;fontSize=16;" edge="1" parent="1" source="zJx0h5G6u-gIFGeVcfLG-54" target="zJx0h5G6u-gIFGeVcfLG-56">
          <mxGeometry relative="1" as="geometry" />
        </mxCell>
        <mxCell id="zJx0h5G6u-gIFGeVcfLG-58" value="是" style="edgeLabel;html=1;align=center;verticalAlign=middle;resizable=0;points=[];fontSize=20;fontFamily=Architects Daughter;" vertex="1" connectable="0" parent="zJx0h5G6u-gIFGeVcfLG-57">
          <mxGeometry x="-0.0618" y="5" relative="1" as="geometry">
            <mxPoint as="offset" />
          </mxGeometry>
        </mxCell>
        <mxCell id="zJx0h5G6u-gIFGeVcfLG-61" value="" style="edgeStyle=orthogonalEdgeStyle;rounded=0;sketch=1;hachureGap=4;jiggle=2;curveFitting=1;orthogonalLoop=1;jettySize=auto;html=1;fontFamily=Architects Daughter;fontSource=https%3A%2F%2Ffonts.googleapis.com%2Fcss%3Ffamily%3DArchitects%2BDaughter;fontSize=16;" edge="1" parent="1" source="zJx0h5G6u-gIFGeVcfLG-54" target="zJx0h5G6u-gIFGeVcfLG-60">
          <mxGeometry relative="1" as="geometry" />
        </mxCell>
        <mxCell id="zJx0h5G6u-gIFGeVcfLG-66" value="否" style="edgeLabel;html=1;align=center;verticalAlign=middle;resizable=0;points=[];fontSize=20;fontFamily=Architects Daughter;" vertex="1" connectable="0" parent="zJx0h5G6u-gIFGeVcfLG-61">
          <mxGeometry x="0.5867" y="-1" relative="1" as="geometry">
            <mxPoint as="offset" />
          </mxGeometry>
        </mxCell>
        <mxCell id="zJx0h5G6u-gIFGeVcfLG-54" value="判断队列是否满" style="rhombus;whiteSpace=wrap;html=1;fontSize=20;fontFamily=Architects Daughter;strokeWidth=2;fontSource=https%3A%2F%2Ffonts.googleapis.com%2Fcss%3Ffamily%3DArchitects%2BDaughter;hachureGap=4;sketch=1;curveFitting=1;jiggle=2;" vertex="1" parent="1">
          <mxGeometry x="1842.5" y="1217.5" width="280" height="130" as="geometry" />
        </mxCell>
        <mxCell id="zJx0h5G6u-gIFGeVcfLG-70" style="edgeStyle=orthogonalEdgeStyle;rounded=0;sketch=1;hachureGap=4;jiggle=2;curveFitting=1;orthogonalLoop=1;jettySize=auto;html=1;entryX=1;entryY=0.5;entryDx=0;entryDy=0;fontFamily=Architects Daughter;fontSource=https%3A%2F%2Ffonts.googleapis.com%2Fcss%3Ffamily%3DArchitects%2BDaughter;fontSize=16;" edge="1" parent="1" source="zJx0h5G6u-gIFGeVcfLG-56" target="zJx0h5G6u-gIFGeVcfLG-2">
          <mxGeometry relative="1" as="geometry">
            <Array as="points">
              <mxPoint x="1983" y="1920" />
              <mxPoint x="2570" y="1920" />
              <mxPoint x="2570" y="540" />
            </Array>
          </mxGeometry>
        </mxCell>
        <mxCell id="zJx0h5G6u-gIFGeVcfLG-56" value="恢复调度器" style="whiteSpace=wrap;html=1;fontSize=20;fontFamily=Architects Daughter;strokeWidth=2;fontSource=https%3A%2F%2Ffonts.googleapis.com%2Fcss%3Ffamily%3DArchitects%2BDaughter;hachureGap=4;sketch=1;curveFitting=1;jiggle=2;" vertex="1" parent="1">
          <mxGeometry x="1922.5" y="1462.5" width="120" height="60" as="geometry" />
        </mxCell>
        <mxCell id="zJx0h5G6u-gIFGeVcfLG-63" value="" style="edgeStyle=orthogonalEdgeStyle;rounded=0;sketch=1;hachureGap=4;jiggle=2;curveFitting=1;orthogonalLoop=1;jettySize=auto;html=1;fontFamily=Architects Daughter;fontSource=https%3A%2F%2Ffonts.googleapis.com%2Fcss%3Ffamily%3DArchitects%2BDaughter;fontSize=16;" edge="1" parent="1" source="zJx0h5G6u-gIFGeVcfLG-60" target="zJx0h5G6u-gIFGeVcfLG-62">
          <mxGeometry relative="1" as="geometry" />
        </mxCell>
        <mxCell id="zJx0h5G6u-gIFGeVcfLG-60" value="将等待发送队列任务插入事件链表" style="whiteSpace=wrap;html=1;fontSize=20;fontFamily=Architects Daughter;strokeWidth=2;fontSource=https%3A%2F%2Ffonts.googleapis.com%2Fcss%3Ffamily%3DArchitects%2BDaughter;hachureGap=4;sketch=1;curveFitting=1;jiggle=2;" vertex="1" parent="1">
          <mxGeometry x="2242.5" y="1472.5" width="200" height="60" as="geometry" />
        </mxCell>
        <mxCell id="zJx0h5G6u-gIFGeVcfLG-65" value="" style="edgeStyle=orthogonalEdgeStyle;rounded=0;sketch=1;hachureGap=4;jiggle=2;curveFitting=1;orthogonalLoop=1;jettySize=auto;html=1;fontFamily=Architects Daughter;fontSource=https%3A%2F%2Ffonts.googleapis.com%2Fcss%3Ffamily%3DArchitects%2BDaughter;fontSize=16;" edge="1" parent="1" source="zJx0h5G6u-gIFGeVcfLG-62" target="zJx0h5G6u-gIFGeVcfLG-64">
          <mxGeometry relative="1" as="geometry" />
        </mxCell>
        <mxCell id="zJx0h5G6u-gIFGeVcfLG-62" value="将任务插入DelayList" style="whiteSpace=wrap;html=1;fontSize=20;fontFamily=Architects Daughter;strokeWidth=2;fontSource=https%3A%2F%2Ffonts.googleapis.com%2Fcss%3Ffamily%3DArchitects%2BDaughter;hachureGap=4;sketch=1;curveFitting=1;jiggle=2;" vertex="1" parent="1">
          <mxGeometry x="2242.5" y="1602.5" width="200" height="60" as="geometry" />
        </mxCell>
        <mxCell id="zJx0h5G6u-gIFGeVcfLG-71" style="edgeStyle=orthogonalEdgeStyle;rounded=0;sketch=1;hachureGap=4;jiggle=2;curveFitting=1;orthogonalLoop=1;jettySize=auto;html=1;exitX=0.5;exitY=1;exitDx=0;exitDy=0;fontFamily=Architects Daughter;fontSource=https%3A%2F%2Ffonts.googleapis.com%2Fcss%3Ffamily%3DArchitects%2BDaughter;fontSize=16;" edge="1" parent="1" source="zJx0h5G6u-gIFGeVcfLG-64">
          <mxGeometry relative="1" as="geometry">
            <mxPoint x="520" y="540" as="targetPoint" />
            <Array as="points">
              <mxPoint x="2343" y="1920" />
              <mxPoint x="2570" y="1920" />
              <mxPoint x="2570" y="540" />
            </Array>
          </mxGeometry>
        </mxCell>
        <mxCell id="zJx0h5G6u-gIFGeVcfLG-64" value="恢复调度器" style="whiteSpace=wrap;html=1;fontSize=20;fontFamily=Architects Daughter;strokeWidth=2;fontSource=https%3A%2F%2Ffonts.googleapis.com%2Fcss%3Ffamily%3DArchitects%2BDaughter;hachureGap=4;sketch=1;curveFitting=1;jiggle=2;" vertex="1" parent="1">
          <mxGeometry x="2282.5" y="1742.5" width="120" height="60" as="geometry" />
        </mxCell>
      </root>
    </mxGraphModel>
  </diagram>
</mxfile>
